#!OML:ASF H:\Terrain\Patient Classification 1\Terrain2\Thursday\justin.ASF
:FULLY-SPECIFIED
:DEGREES
3295
root 9.71502 17.9068 22.5162 181.249 -0.286108 187.776
lowerback 11.1265 1.13895 8.00326
upperback 4.05402 1.73687 4.21072
thorax -1.83401 0.569348 -0.307356
lowerneck -14.0509 0.432614 -9.05519
upperneck 35.0161 -0.777132 1.95119
head 14.408 -2.37943 1.98235
rclavicle -1.0138e-014 2.38542e-015
rhumerus -30.915 -7.65559 -79.227
rradius 34.7717
rwrist -12.7584
rhand -20.1161 14.3361
rfingers 7.12502
rthumb 6.22775 -15.5524
lclavicle -1.0138e-014 2.38542e-015
lhumerus -34.9318 7.26628 85.4133
lradius 30.5933
lwrist 2.22079
lhand -17.8762 20.9171
lfingers 7.12502
lthumb 8.38977 50.7305
rfemur -1.55491 -4.01967 30.2701
rtibia 18.8859
rfoot -16.6613 4.24275
rtoes 22.3545
lfemur -42.0803 -1.02284 -9.54023
ltibia 81.9268
lfoot -5.21313 -11.7885
ltoes -11.0767
3296
root 9.73048 17.921 22.5025 181.135 -0.115699 187.992
lowerback 11.364 1.27307 8.18282
upperback 4.09467 1.93565 4.29128
thorax -1.90219 0.656155 -0.34941
lowerneck -13.9561 0.386601 -9.14052
upperneck 34.8734 -0.817773 2.00449
head 14.3249 -2.38596 2.01466
rclavicle -7.35503e-015 -3.18055e-014
rhumerus -30.8617 -7.48038 -79.2357
rradius 34.1635
rwrist -12.672
rhand -20.2052 14.185
rfingers 7.12502
rthumb 6.14175 -15.7059
lclavicle -7.35503e-015 -3.18055e-014
lhumerus -35.0772 7.17928 85.4334
lradius 30.9233
lwrist 2.14186
lhand -17.5816 20.7228
lfingers 7.12502
lthumb 8.67412 50.5246
rfemur -0.713503 -4.0959 30.5357
rtibia 17.5705
rfoot -16.1476 4.32311
rtoes 21.8437
lfemur -43.8252 0.128447 -9.52709
ltibia 85.5047
lfoot -6.25155 -10.9343
ltoes -15.7099
3297
root 9.74392 17.9402 22.4856 181.017 -0.0262713 188.277
lowerback 11.5509 0.382493 8.33149
upperback 4.22566 2.3559 4.26166
thorax -1.92448 1.53497 -0.543852
lowerneck -13.8032 0.300524 -9.07525
upperneck 34.5912 -0.924132 2.0174
head 14.1694 -2.39192 1.99542
rclavicle -1.92821e-014 -6.91771e-014
rhumerus -30.7876 -7.47067 -79.3151
rradius 33.5661
rwrist -12.5143
rhand -19.9903 14.1522
rfingers 7.12502
rthumb 6.34915 -15.7327
lclavicle -1.92821e-014 -6.91771e-014
lhumerus -35.2159 6.81636 85.483
lradius 31.2667
lwrist 2.50716
lhand -17.506 20.2447
lfingers 7.12502
lthumb 8.74706 50.0434
rfemur 0.10912 -4.26412 30.8605
rtibia 16.3021
rfoot -15.5623 4.47776
rtoes 21.5647
lfemur -45.6135 1.11591 -9.31956
ltibia 89.0515
lfoot -7.22867 -10.256
ltoes -15.1507
3298
root 9.7573 17.9599 22.4682 180.92 0.307522 188.321
lowerback 11.7538 0.521941 8.4319
upperback 4.27762 2.5734 4.18466
thorax -1.95774 1.64514 -0.71177
lowerneck -13.6769 0.299922 -8.98738
upperneck 34.4613 -0.954849 2.0611
head 14.083 -2.37574 1.99483
rclavicle 1.96797e-014 4.13472e-014
rhumerus -30.6399 -7.62761 -79.4362
rradius 32.9237
rwrist -12.1801
rhand -19.5349 14.2373
rfingers 7.12502
rthumb 6.78884 -15.6339
lclavicle 1.96797e-014 4.13472e-014
lhumerus -35.375 5.94972 85.6985
lradius 31.6434
lwrist 3.84543
lhand -18.1438 19.9146
lfingers 7.12502
lthumb 8.1316 49.7382
rfemur 0.934458 -4.11749 30.9365
rtibia 15.059
rfoot -14.9132 4.61928
rtoes 21.2955
lfemur -47.3152 2.16681 -9.33466
ltibia 92.5123
lfoot -7.901 -9.64036
ltoes -11.5085
3299
root 9.77184 17.9734 22.4485 180.81 0.550726 188.23
lowerback 11.9668 0.565583 8.2571
upperback 4.29885 2.63872 4.19519
thorax -2.05594 1.67493 -0.619499
lowerneck -13.6639 0.393974 -9.184
upperneck 34.5576 -0.813628 2.14307
head 14.1141 -2.34223 2.08318
rclavicle -6.16232e-015 9.62118e-014
rhumerus -30.4299 -7.57189 -79.4672
rradius 32.2063
rwrist -11.5754
rhand -19.4365 14.5507
rfingers 7.12502
rthumb 6.88385 -15.3174
lclavicle -6.16232e-015 9.62118e-014
lhumerus -35.6564 5.95245 85.6993
lradius 31.9678
lwrist 4.08072
lhand -17.963 19.9755
lfingers 7.12502
lthumb 8.30609 49.7922
rfemur 1.80908 -3.93499 30.893
rtibia 13.7704
rfoot -14.3308 4.60559
rtoes 20.7088
lfemur -49.0838 3.12014 -9.54469
ltibia 95.9212
lfoot -8.83421 -9.61488
ltoes -10.4228
3300
root 9.78892 17.9828 22.4239 180.56 0.588726 188.315
lowerback 12.2567 0.463843 8.10967
upperback 4.38591 2.55559 4.3682
thorax -2.14484 1.64579 -0.354656
lowerneck -13.7678 0.533609 -9.42738
upperneck 34.6431 -0.499484 2.04484
head 14.1561 -2.26185 2.13336
rclavicle 5.96354e-016 5.24792e-014
rhumerus -30.0686 -7.22187 -79.4621
rradius 31.3732
rwrist -10.9194
rhand -19.2131 14.8302
rfingers 7.12502
rthumb 7.09944 -15.0307
lclavicle 5.96354e-016 5.24792e-014
lhumerus -35.9602 6.41848 85.763
lradius 32.3469
lwrist 4.36794
lhand -18.2934 20.3656
lfingers 7.12502
lthumb 7.98719 50.1946
rfemur 2.83863 -3.81919 31.0706
rtibia 12.4316
rfoot -13.7682 4.43041
rtoes 20.5049
lfemur -50.6509 3.99375 -9.53971
ltibia 99.1833
lfoot -9.63262 -9.04794
ltoes -11.4899
